# xmcd CD database file
#
# Track frame offsets:
#	150
#	14200
#	23107
#	35581
#	52234
#	67921
#	81674
#	98719
#	111245
#	131934
#	148796
#	162223
#	176682
#	186830
#	197619
#
# Disc length: 2815 seconds
#
# Revision: 0
# Processed by: cddbd v1.5.2PL0 Copyright (c) Steve Scherf et al.
# Submitted via: CDex 1.51
#
DISCID=e10afd0f
DTITLE=Ingrid Kirk - As Time Goes By
DYEAR=2005
DGENRE=Country
TTITLE0=You Belong To Me
TTITLE1=I'm Sorry
TTITLE2=That Old Feeling
TTITLE3=Blue Moon
TTITLE4=Autumn Leaves
TTITLE5=I'll Walk Alone
TTITLE6=Summertime
TTITLE7=Crazy
TTITLE8=He'll Have To Go, He'll Have To Stay
TTITLE9=Crying Time
TTITLE10=Love Letters
TTITLE11=Far Away PLaces
TTITLE12=Leaving On Your Mind
TTITLE13=True Love
TTITLE14=As Time Goes By
EXTD=YEAR: 2005
EXTT0=
EXTT1=
EXTT2=
EXTT3=
EXTT4=
EXTT5=
EXTT6=
EXTT7=
EXTT8=
EXTT9=
EXTT10=
EXTT11=
EXTT12=
EXTT13=
EXTT14=
PLAYORDER=
